<svg id="Layer_1" data-name="Layer 1" xmlns="http://www.w3.org/2000/svg" xmlns:xlink="http://www.w3.org/1999/xlink" viewBox="0 0 314.14 204.44"><defs><style>.cls-1{fill:none;}.cls-2{clip-path:url(#clip-path);}.cls-3{fill:#2791a8;}.cls-4{fill:#2790a8;}.cls-5{fill:#278ea7;}.cls-6{fill:#278da6;}.cls-7{fill:#278ca6;}.cls-8{fill:#278ba5;}.cls-9{fill:#278aa4;}.cls-10{fill:#2789a4;}.cls-11{fill:#2788a3;}.cls-12{fill:#2787a2;}.cls-13{fill:#2786a2;}.cls-14{fill:#2785a1;}.cls-15{fill:#2783a0;}.cls-16{fill:#27829f;}.cls-17{fill:#26819f;}.cls-18{fill:#26809e;}.cls-19{fill:#267f9d;}.cls-20{fill:#267e9d;}.cls-21{fill:#267d9c;}.cls-22{fill:#267c9b;}.cls-23{fill:#267b9b;}.cls-24{fill:#ee316d;}</style><clipPath id="clip-path"><path class="cls-1" d="M41.47,204.44"/></clipPath></defs><g class="cls-2"><polyline class="cls-3" points="57.77 173.38 57.93 173.47 57.93 173.48"/><line class="cls-4" x1="57.6" y1="173.28" x2="57.77" y2="173.38"/><line class="cls-5" x1="57.44" y1="173.19" x2="57.6" y2="173.28"/><line class="cls-6" x1="57.28" y1="173.09" x2="57.44" y2="173.19"/><line class="cls-7" x1="57.12" y1="173" x2="57.28" y2="173.09"/><line class="cls-8" x1="56.95" y1="172.91" x2="57.12" y2="173"/><line class="cls-9" x1="56.79" y1="172.81" x2="56.95" y2="172.91"/><line class="cls-10" x1="56.63" y1="172.72" x2="56.79" y2="172.81"/><line class="cls-11" x1="56.46" y1="172.62" x2="56.63" y2="172.72"/><line class="cls-12" x1="56.3" y1="172.53" x2="56.46" y2="172.62"/><line class="cls-13" x1="56.14" y1="172.43" x2="56.3" y2="172.53"/><line class="cls-14" x1="55.97" y1="172.34" x2="56.14" y2="172.43"/><line class="cls-15" x1="55.81" y1="172.25" x2="55.97" y2="172.34"/><line class="cls-16" x1="55.65" y1="172.15" x2="55.81" y2="172.25"/><line class="cls-17" x1="55.48" y1="172.06" x2="55.65" y2="172.15"/><line class="cls-18" x1="55.32" y1="171.96" x2="55.48" y2="172.06"/><line class="cls-19" x1="55.16" y1="171.87" x2="55.32" y2="171.96"/><line class="cls-20" x1="54.99" y1="171.78" x2="55.16" y2="171.87"/><line class="cls-21" x1="54.83" y1="171.68" x2="54.99" y2="171.78"/><line class="cls-22" x1="54.67" y1="171.59" x2="54.83" y2="171.68"/><polyline class="cls-23" points="54.49 171.52 54.56 171.52 54.67 171.59"/></g><g id="rfY9eX"><path class="cls-24" d="M34.87,0C47.81,6.51,60.49,12.69,72.94,19.29c4,2.14,7.16,2.5,11.36.21,11.48-6.25,23.27-11.93,35-17.8,1.08-.55,2.07-1.41,3.64-1.31V3.47c0,27.54,0,55.08,0,82.63,0,2.34-.53,3.63-2.81,4.74q-19.29,9.45-38.36,19.34a5.81,5.81,0,0,1-6-.08C62.9,103.54,50,97.09,37.1,90.63c-1.46-.74-2.45-1.4-2.44-3.42.09-28.47.06-56.95.07-85.43C34.73,1.38,34.79,1,34.87,0ZM80.45,107c12.83-6.44,25.13-12.66,37.48-18.79,1.49-.74,1.75-1.73,1.75-3.21q0-38.49,0-77c0-2.5-.68-2.53-2.63-1.53q-17,8.71-34.19,17.23a3.75,3.75,0,0,0-2.46,4c.07,25.56,0,51.12,0,76.68Zm-3.23.06c0-27.09,0-53.58,0-80.07,0-1.9-1.05-2.45-2.4-3.12Q57.9,15.35,41,6.79c-3-1.51-3-1.49-3,2,0,23,.34,45.94-.2,68.89-.16,7.14,1.15,11.92,8.48,13.75a5.87,5.87,0,0,1,1.1.59Z"/><path class="cls-24" d="M8.14,16.18c3.41,1.69,6.39,3.09,9.3,4.63,1.71.91,2.14.4,2.11-1.36-.06-4.54,0-9.08,0-14.15,4.2,2.1,8,4,11.76,5.85,1.18.58,1.08,1.21.58,2.22s-1.1,1.45-2.16.74a6.46,6.46,0,0,0-.84-.4c-5.93-2.84-5.93-2.84-5.93,3.87,0,24,0,48-.05,72.05,0,2.2.61,3.27,2.74,4.05,11.8,4.31,23.53,8.78,35.29,13.2.58.21,1.16.46,1.75.65,1.11.35,1.83.74,1.24,2.21-.52,1.29-1.07,1.46-2.31,1Q41.36,103.07,21.09,95.5c-1.94-.72-1.55-2.18-1.55-3.57q0-31.35,0-62.69c0-1.31.64-3-.59-3.83a39.62,39.62,0,0,0-6.37-3.22c-.83-.36-1,.49-1,1.12,0,.83,0,1.67,0,2.5v74.85c0,.73,0,1.46,0,2.19.06,1.2-.19,2-1.67,2s-1.84-.59-1.76-1.89c.06-1.14,0-2.29,0-3.43V16.18Z"/><path class="cls-24" d="M139.73,5.36V21.77l10.87-5.26c.71.77.46,1.62.46,2.38q0,41.49,0,83c0,.52,0,1,0,1.56,0,1.14-.64,1.38-1.6,1.38s-1.66-.14-1.63-1.32c0-.83,0-1.66,0-2.49V25.81c0-4.28,0-4.28-4-2.3a7.2,7.2,0,0,1-1.12.54c-2.39.78-3.1,2.31-3.09,4.88.12,21,0,42,.12,63,0,2.2-.62,3.22-2.72,4-12.85,4.73-25.64,9.62-38.47,14.42-1.07.4-2.38,1.66-3.19-.6s1.09-2.11,2.12-2.5C109.65,102.64,121.78,98,134,93.57c2-.74,2.6-1.71,2.6-3.81q-.12-37.91,0-75.8c0-2.51-.45-3.35-2.84-1.8-1.3.84-2.74,1.47-4.12,2.2-1.18.63-1.66-.12-2.14-1s-.58-1.62.63-2.19C131.81,9.37,135.48,7.48,139.73,5.36Z"/><path class="cls-24" d="M77.19,189.17c-7.06,0-14.13-.13-21.18.06-2.94.08-2.33-1.72-2.34-3.34s-.53-3.32,2.38-3.29c14,.14,28.06.1,42.09,0,2,0,2.37.7,2.31,2.47-.17,4.95.56,4-4.07,4.08C90,189.22,83.59,189.17,77.19,189.17Z"/></g><path d="M0,121H9.17v16.09A14.73,14.73,0,0,1,18,134.47a17.6,17.6,0,0,1,9,2.41,18.1,18.1,0,0,1,6.57,6.58,18,18,0,0,1,0,18.12A18.18,18.18,0,0,1,27,168.16a17.7,17.7,0,0,1-9,2.41,17.64,17.64,0,0,1-9-2.41,18,18,0,0,1-9-15.64ZM11.61,146a9.58,9.58,0,0,0,0,13.08,8.68,8.68,0,0,0,6.44,2.62,8.45,8.45,0,0,0,6.37-2.62,9.75,9.75,0,0,0,0-13.08,8.45,8.45,0,0,0-6.37-2.63A8.69,8.69,0,0,0,11.61,146Z"/><path d="M67.76,136.88a18.23,18.23,0,1,1-9.06-2.41A17.73,17.73,0,0,1,67.76,136.88ZM52.33,146a9.55,9.55,0,0,0,0,13.08,8.68,8.68,0,0,0,6.44,2.62,8.42,8.42,0,0,0,6.36-2.62,9.75,9.75,0,0,0,0-13.08,8.43,8.43,0,0,0-6.36-2.63A8.69,8.69,0,0,0,52.33,146Z"/><path d="M109.18,136.88a18.23,18.23,0,1,1-9.06-2.41A17.8,17.8,0,0,1,109.18,136.88ZM93.75,146a9.55,9.55,0,0,0,0,13.08,8.66,8.66,0,0,0,6.44,2.62,8.44,8.44,0,0,0,6.36-2.62,9.75,9.75,0,0,0,0-13.08,8.45,8.45,0,0,0-6.36-2.63A8.67,8.67,0,0,0,93.75,146Z"/><path d="M123.83,121h9.1v25.53L144.54,135h11.62l-13.3,13.43L158.39,170H148.25L136.71,154.2,132.93,158v12h-9.1Z"/><path d="M166.37,169.21a12.62,12.62,0,0,1-5.49-4.06,10.33,10.33,0,0,1-2.07-6.47h8.68a3.1,3.1,0,0,0,1.85,2.72,9.52,9.52,0,0,0,4.73,1,8,8,0,0,0,4.23-.94,2.78,2.78,0,0,0,1.5-2.41,2.23,2.23,0,0,0-1.68-2.17,32.07,32.07,0,0,0-5.38-1.26,50,50,0,0,1-6.86-1.58,10.84,10.84,0,0,1-4.72-3,9.34,9.34,0,0,1-.07-11.47,12.73,12.73,0,0,1,5.21-3.78,19,19,0,0,1,7.35-1.36,16.48,16.48,0,0,1,10.28,3,10,10,0,0,1,4,8.43h-8.68a2.85,2.85,0,0,0-1.71-2.45,8,8,0,0,0-4-1,7.17,7.17,0,0,0-3.74.91,2.67,2.67,0,0,0-1.5,2.31c0,.84.53,1.47,1.61,1.89a26.53,26.53,0,0,0,5.1,1.19,52.75,52.75,0,0,1,6.93,1.58,11.62,11.62,0,0,1,4.9,3,8.09,8.09,0,0,1,2.1,5.92q.06,5.59-4.1,8.43t-10.94,2.83A20.24,20.24,0,0,1,166.37,169.21Z"/><path d="M206.11,143.91v9.59c0,2.8.49,4.8,1.47,6s2.59,1.81,4.82,1.81v8.89q-7.07,0-11.23-4.13T197,153.5v-9.59h-5.18V135H197V121.11h9.1V135h6.29v8.88Z"/><path d="M243.78,136.88a18.23,18.23,0,1,1-9.06-2.41A17.75,17.75,0,0,1,243.78,136.88ZM228.35,146a9.58,9.58,0,0,0,0,13.08,8.69,8.69,0,0,0,6.44,2.62,8.45,8.45,0,0,0,6.37-2.62,9.75,9.75,0,0,0,0-13.08,8.45,8.45,0,0,0-6.37-2.63A8.7,8.7,0,0,0,228.35,146Z"/><path d="M258.44,151.61q0-8.33,4.13-12.52a14.51,14.51,0,0,1,10.84-4.2h.42v8.88h-.35a5.32,5.32,0,0,0-4.48,1.89c-1,1.26-1.47,3.25-1.47,6V170h-9.09Z"/><path d="M280.44,143.6a17.94,17.94,0,0,1,6.44-6.65,17,17,0,0,1,9-2.48,19.07,19.07,0,0,1,8.6,2.06,17.9,17.9,0,0,1,6.82,6,16.78,16.78,0,0,1,2.84,9.24,23,23,0,0,1-.28,4.34h-26a6.79,6.79,0,0,0,2.77,4.09,8.83,8.83,0,0,0,5.21,1.5,9.29,9.29,0,0,0,3.53-.56,9.76,9.76,0,0,0,2.48-1.46l10.85.07a18.34,18.34,0,0,1-6.65,7.83,17.36,17.36,0,0,1-9.93,3,17.91,17.91,0,0,1-15.64-9,17.54,17.54,0,0,1-2.41-9A18,18,0,0,1,280.44,143.6Zm24,5.21a9.1,9.1,0,0,0-8.25-5.46,8.57,8.57,0,0,0-5,1.47,9.44,9.44,0,0,0-3.22,4Z"/></svg>