<svg id="Layer_1" data-name="Layer 1" xmlns="http://www.w3.org/2000/svg" xmlns:xlink="http://www.w3.org/1999/xlink" viewBox="0 0 142.98 204.44"><defs><style>.cls-1{fill:none;}.cls-2{clip-path:url(#clip-path);}.cls-3{fill:#2791a8;}.cls-4{fill:#2790a8;}.cls-5{fill:#278ea7;}.cls-6{fill:#278da6;}.cls-7{fill:#278ca6;}.cls-8{fill:#278ba5;}.cls-9{fill:#278aa4;}.cls-10{fill:#2789a4;}.cls-11{fill:#2788a3;}.cls-12{fill:#2787a2;}.cls-13{fill:#2786a2;}.cls-14{fill:#2785a1;}.cls-15{fill:#2783a0;}.cls-16{fill:#27829f;}.cls-17{fill:#26819f;}.cls-18{fill:#26809e;}.cls-19{fill:#267f9d;}.cls-20{fill:#267e9d;}.cls-21{fill:#267d9c;}.cls-22{fill:#267c9b;}.cls-23{fill:#267b9b;}.cls-24{fill:#ee316d;}</style><clipPath id="clip-path"><path class="cls-1" d="M33.35,204.44"/></clipPath></defs><g class="cls-2"><polyline class="cls-3" points="49.65 173.38 49.81 173.47 49.81 173.48"/><line class="cls-4" x1="49.49" y1="173.28" x2="49.65" y2="173.38"/><line class="cls-5" x1="49.32" y1="173.19" x2="49.49" y2="173.28"/><line class="cls-6" x1="49.16" y1="173.09" x2="49.32" y2="173.19"/><line class="cls-7" x1="49" y1="173" x2="49.16" y2="173.09"/><line class="cls-8" x1="48.83" y1="172.91" x2="49" y2="173"/><line class="cls-9" x1="48.67" y1="172.81" x2="48.83" y2="172.91"/><line class="cls-10" x1="48.51" y1="172.72" x2="48.67" y2="172.81"/><line class="cls-11" x1="48.34" y1="172.62" x2="48.51" y2="172.72"/><line class="cls-12" x1="48.18" y1="172.53" x2="48.34" y2="172.62"/><line class="cls-13" x1="48.02" y1="172.43" x2="48.18" y2="172.53"/><line class="cls-14" x1="47.85" y1="172.34" x2="48.02" y2="172.43"/><line class="cls-15" x1="47.69" y1="172.25" x2="47.85" y2="172.34"/><line class="cls-16" x1="47.53" y1="172.15" x2="47.69" y2="172.25"/><line class="cls-17" x1="47.36" y1="172.06" x2="47.53" y2="172.15"/><line class="cls-18" x1="47.2" y1="171.96" x2="47.36" y2="172.06"/><line class="cls-19" x1="47.04" y1="171.87" x2="47.2" y2="171.96"/><line class="cls-20" x1="46.88" y1="171.78" x2="47.04" y2="171.87"/><line class="cls-21" x1="46.71" y1="171.68" x2="46.88" y2="171.78"/><line class="cls-22" x1="46.55" y1="171.59" x2="46.71" y2="171.68"/><polyline class="cls-23" points="46.37 171.52 46.44 171.52 46.55 171.59"/></g><g id="rfY9eX"><path class="cls-24" d="M26.75,0C39.69,6.51,52.37,12.69,64.83,19.29c4,2.14,7.15,2.5,11.36.21C87.66,13.25,99.45,7.57,111.13,1.7c1.08-.55,2.07-1.41,3.64-1.31V3.47c0,27.54,0,55.08,0,82.63,0,2.34-.53,3.63-2.81,4.74q-19.29,9.45-38.36,19.34a5.79,5.79,0,0,1-6-.08c-12.85-6.56-25.75-13-38.65-19.47-1.46-.74-2.45-1.4-2.44-3.42.09-28.47.06-56.95.07-85.43C26.61,1.38,26.67,1,26.75,0ZM72.33,107c12.83-6.44,25.13-12.66,37.48-18.79,1.49-.74,1.75-1.73,1.75-3.21q0-38.49,0-77c0-2.5-.69-2.53-2.64-1.53q-17,8.71-34.19,17.23a3.75,3.75,0,0,0-2.46,4c.07,25.56,0,51.12,0,76.68Zm-3.23.06c0-27.09,0-53.58,0-80.07,0-1.9-1-2.45-2.4-3.12q-17-8.52-33.91-17.08c-3-1.51-3-1.49-3,2,0,23,.34,45.94-.2,68.89-.16,7.14,1.15,11.92,8.48,13.75a5.87,5.87,0,0,1,1.1.59Z"/><path class="cls-24" d="M0,16.18c3.41,1.69,6.4,3.09,9.3,4.63,1.71.91,2.14.4,2.11-1.36-.06-4.54,0-9.08,0-14.15,4.2,2.1,8,4,11.76,5.85,1.19.58,1.08,1.21.58,2.22s-1.1,1.45-2.16.74a6.46,6.46,0,0,0-.84-.4c-5.92-2.84-5.92-2.84-5.92,3.87q0,36-.05,72.05c0,2.2.6,3.27,2.73,4.05C29.31,98,41,102.46,52.8,106.88c.58.21,1.16.46,1.75.65,1.11.35,1.83.74,1.24,2.21-.52,1.29-1.07,1.46-2.31,1Q33.25,103.07,13,95.5c-1.94-.72-1.55-2.18-1.55-3.57q0-31.35,0-62.69c0-1.31.64-3-.59-3.83a39.62,39.62,0,0,0-6.37-3.22c-.83-.36-1,.49-1,1.12,0,.83,0,1.67,0,2.5v74.85c0,.73,0,1.46,0,2.19.06,1.2-.19,2-1.67,2s-1.84-.59-1.76-1.89c.07-1.14,0-2.29,0-3.43V16.18Z"/><path class="cls-24" d="M131.61,5.36V21.77l10.87-5.26c.71.77.46,1.62.46,2.38q0,41.49,0,83c0,.52,0,1,0,1.56,0,1.14-.64,1.38-1.6,1.38s-1.66-.14-1.63-1.32c0-.83,0-1.66,0-2.49V25.81c0-4.28,0-4.28-4-2.3a7.2,7.2,0,0,1-1.12.54c-2.39.78-3.1,2.31-3.09,4.88.12,21,0,42,.13,63,0,2.2-.63,3.22-2.72,4-12.86,4.73-25.65,9.62-38.48,14.42-1.07.4-2.38,1.66-3.19-.6s1.09-2.11,2.12-2.5c12.12-4.62,24.25-9.22,36.43-13.69,2-.74,2.6-1.71,2.6-3.81q-.12-37.91,0-75.8c0-2.51-.45-3.35-2.84-1.8-1.3.84-2.74,1.47-4.12,2.2-1.18.63-1.66-.12-2.14-1s-.58-1.62.63-2.19C123.69,9.37,127.36,7.48,131.61,5.36Z"/></g></svg>